<?xml version="1.0" encoding="UTF-8" standalone="no"?>
<svg
   xmlns:dc="http://purl.org/dc/elements/1.1/"
   xmlns:cc="http://creativecommons.org/ns#"
   xmlns:rdf="http://www.w3.org/1999/02/22-rdf-syntax-ns#"
   xmlns:svg="http://www.w3.org/2000/svg"
   xmlns="http://www.w3.org/2000/svg"
   xmlns:sodipodi="http://sodipodi.sourceforge.net/DTD/sodipodi-0.dtd"
   xmlns:inkscape="http://www.inkscape.org/namespaces/inkscape"
   inkscape:version="1.0 (4035a4f, 2020-05-01)"
   sodipodi:docname="logo.svg"
   id="svg32"
   version="1.1"
   fill="none"
   viewBox="0 0 294 71"
   height="71"
   width="294">
  <metadata
     id="metadata38">
    <rdf:RDF>
      <cc:Work
         rdf:about="">
        <dc:format>image/svg+xml</dc:format>
        <dc:type
           rdf:resource="http://purl.org/dc/dcmitype/StillImage" />
        <dc:title></dc:title>
      </cc:Work>
    </rdf:RDF>
  </metadata>
  <defs
     id="defs36" />
  <sodipodi:namedview
     inkscape:current-layer="svg32"
     inkscape:window-maximized="0"
     inkscape:window-y="23"
     inkscape:window-x="0"
     inkscape:cy="57.974889"
     inkscape:cx="248.89216"
     inkscape:zoom="1.8656463"
     showgrid="false"
     id="namedview34"
     inkscape:window-height="855"
     inkscape:window-width="1440"
     inkscape:pageshadow="2"
     inkscape:pageopacity="0"
     guidetolerance="10"
     gridtolerance="10"
     objecttolerance="10"
     borderopacity="1"
     bordercolor="#666666"
     pagecolor="#ffffff" />
  <path
     d="M 41.052747,65.133835 25.16572,40.932872 c 8.066988,-1.481692 13.00596,-6.667612 13.00596,-14.7346 0,-9.548679 -6.996877,-15.393129 -17.780299,-15.393129 H 0.22391164 V 65.133835 H 4.3397216 V 41.591402 H 19.897483 l 0.411581,-0.246949 h 0.164633 L 36.196091,65.133835 Z M 4.3397216,37.72254 V 14.591688 H 20.309064 c 8.807834,0 13.582174,4.11581 13.582174,11.606584 0,7.490774 -4.77434,11.524268 -13.582174,11.524268 z"
     style="font-style:normal;font-variant:normal;font-weight:300;font-stretch:normal;font-size:82.3162px;line-height:1.25;font-family:'Work Sans';-inkscape-font-specification:'Work Sans Light';letter-spacing:-2.57238px;fill:#000000;fill-opacity:1;stroke:none;stroke-width:1.2862"
     id="path1403" />
  <path
     d="m 81.94332,42.661512 c 0,-11.524268 -6.585296,-19.508939 -17.7803,-19.508939 -10.948054,0 -19.097358,8.066987 -19.097358,21.402212 0,13.335224 8.23162,21.402212 19.591256,21.402212 7.655406,0 13.664489,-3.621913 16.710188,-9.466363 l -3.292648,-1.893273 c -2.469486,4.856656 -7.161509,7.737723 -13.499857,7.737723 -8.972465,0 -15.14618,-6.338347 -15.475445,-16.957137 h 32.679531 c 0.08232,-0.740846 0.164633,-1.646324 0.164633,-2.716435 z M 64.080704,26.774486 c 8.396253,0 13.582173,5.762134 13.746806,14.899232 H 49.263788 c 0.987795,-9.384047 6.832245,-14.899232 14.816916,-14.899232 z"
     style="font-style:normal;font-variant:normal;font-weight:300;font-stretch:normal;font-size:82.3162px;line-height:1.25;font-family:'Work Sans';-inkscape-font-specification:'Work Sans Light';letter-spacing:-2.57238px;fill:#000000;fill-opacity:1;stroke:none;stroke-width:1.2862"
     id="path1405" />
  <path
     d="m 105.02401,65.956997 c 9.71331,0 16.05166,-4.609707 16.05166,-12.018165 0,-4.938972 -2.71643,-8.313937 -10.45416,-9.960261 l -9.87794,-2.140221 c -5.679818,-1.234743 -7.490775,-3.951177 -7.490775,-7.161509 0,-4.527391 4.527391,-7.902355 11.524265,-7.902355 5.92677,0 10.78343,2.551802 12.42975,8.313936 l 3.45728,-2.222538 c -2.14022,-6.420663 -7.65541,-9.713311 -15.88703,-9.713311 -9.301727,0 -15.640075,5.268237 -15.640075,11.771216 0,5.268237 3.128016,9.054782 10.948055,10.701106 l 9.631,2.057905 c 5.5975,1.234743 7.24382,3.621913 7.24382,6.832245 0,4.692023 -4.44507,7.820039 -11.60658,7.820039 -7.408461,0 -12.759014,-3.045699 -14.652287,-8.643201 l -3.539597,2.38717 c 2.634119,6.420663 9.54868,9.877944 17.862614,9.877944 z"
     style="font-style:normal;font-variant:normal;font-weight:300;font-stretch:normal;font-size:82.3162px;line-height:1.25;font-family:'Work Sans';-inkscape-font-specification:'Work Sans Light';letter-spacing:-2.57238px;fill:#000000;fill-opacity:1;stroke:none;stroke-width:1.2862"
     id="path1407" />
  <path
     id="path1437"
     d="m 134.29643,23.975735 h -4.11581 v 41.1581 h 4.11581 z"
     style="font-style:normal;font-variant:normal;font-weight:300;font-stretch:normal;font-size:82.3162px;line-height:1.25;font-family:'Work Sans';-inkscape-font-specification:'Work Sans Light';letter-spacing:-2.57238px;fill:#000000;fill-opacity:1;stroke:none;stroke-width:1.2862" />
  <path
     id="path1409"
     d="m 132.23853,15.991063 c 2.0579,0 3.45728,-1.399375 3.45728,-3.45728 0,-2.057905 -1.39938,-3.4572805 -3.45728,-3.4572805 -2.05791,0 -3.45728,1.3993755 -3.45728,3.4572805 0,2.057905 1.39937,3.45728 3.45728,3.45728 z"
     style="font-style:normal;font-variant:normal;font-weight:300;font-stretch:normal;font-size:82.31619999999999493px;line-height:1.25;font-family:'Work Sans';-inkscape-font-specification:'Work Sans Light';letter-spacing:-2.57237999999999989px;fill:#c98664;fill-opacity:1;stroke:none;stroke-width:1.2862" />
  <path
     d="m 150.20533,5.0430087 h -4.11581 V 55.585156 c 0,7.161509 2.88106,10.371841 8.72551,10.371841 2.14022,0 4.0335,-0.411581 5.43287,-1.070111 l 0.57621,-3.621913 c -1.89327,0.823162 -2.88106,1.070111 -5.18592,1.070111 -3.70422,0 -5.43286,-1.810956 -5.43286,-6.914561 z"
     style="font-style:normal;font-variant:normal;font-weight:300;font-stretch:normal;font-size:82.3162px;line-height:1.25;font-family:'Work Sans';-inkscape-font-specification:'Work Sans Light';letter-spacing:-2.57238px;fill:#000000;fill-opacity:1;stroke:none;stroke-width:1.2862"
     id="path1411" />
  <path
     id="path1433"
     d="m 170.47053,23.975735 h -4.11581 v 41.1581 h 4.11581 z"
     style="font-style:normal;font-variant:normal;font-weight:300;font-stretch:normal;font-size:82.3162px;line-height:1.25;font-family:'Work Sans';-inkscape-font-specification:'Work Sans Light';letter-spacing:-2.57238px;fill:#000000;fill-opacity:1;stroke:none;stroke-width:1.2862" />
  <path
     id="path1413"
     d="m 168.41263,15.991063 c 2.0579,0 3.45728,-1.399375 3.45728,-3.45728 0,-2.057905 -1.39938,-3.4572805 -3.45728,-3.4572805 -2.05791,0 -3.45728,1.3993755 -3.45728,3.4572805 0,2.057905 1.39937,3.45728 3.45728,3.45728 z"
     style="font-style:normal;font-variant:normal;font-weight:300;font-stretch:normal;font-size:82.31619999999999493px;line-height:1.25;font-family:'Work Sans';-inkscape-font-specification:'Work Sans Light';letter-spacing:-2.57237999999999989px;fill:#c98664;fill-opacity:1;stroke:none;stroke-width:1.2862" />
  <path
     d="m 216.67179,42.661512 c 0,-11.524268 -6.5853,-19.508939 -17.7803,-19.508939 -10.94805,0 -19.09736,8.066987 -19.09736,21.402212 0,13.335224 8.23162,21.402212 19.59126,21.402212 7.6554,0 13.66449,-3.621913 16.71019,-9.466363 l -3.29265,-1.893273 c -2.46949,4.856656 -7.16151,7.737723 -13.49986,7.737723 -8.97246,0 -15.14618,-6.338347 -15.47544,-16.957137 h 32.67953 c 0.0823,-0.740846 0.16463,-1.646324 0.16463,-2.716435 z M 198.80917,26.774486 c 8.39626,0 13.58218,5.762134 13.74681,14.899232 h -28.56372 c 0.98779,-9.384047 6.83224,-14.899232 14.81691,-14.899232 z"
     style="font-style:normal;font-variant:normal;font-weight:300;font-stretch:normal;font-size:82.3162px;line-height:1.25;font-family:'Work Sans';-inkscape-font-specification:'Work Sans Light';letter-spacing:-2.57238px;fill:#000000;fill-opacity:1;stroke:none;stroke-width:1.2862"
     id="path1415" />
  <path
     d="m 245.10304,23.152573 c -6.91456,0 -12.75901,3.210332 -15.31081,9.054782 l -0.24695,-8.23162 h -3.70423 v 41.1581 h 4.11581 V 41.920666 c 0,-9.630995 6.99688,-15.14618 14.7346,-15.14618 7.07919,0 12.01817,3.951177 12.01817,13.005959 v 25.35339 h 4.11581 V 38.463386 c 0,-10.124893 -6.5853,-15.310813 -15.7224,-15.310813 z"
     style="font-style:normal;font-variant:normal;font-weight:300;font-stretch:normal;font-size:82.3162px;line-height:1.25;font-family:'Work Sans';-inkscape-font-specification:'Work Sans Light';letter-spacing:-2.57238px;fill:#000000;fill-opacity:1;stroke:none;stroke-width:1.2862"
     id="path1417" />
  <path
     d="m 292.65993,59.124752 c -1.89328,1.975589 -4.19813,3.0457 -7.24383,3.0457 -4.69202,0 -7.24383,-2.716435 -7.24383,-7.902356 V 27.515331 H 293.5654 V 23.975735 H 278.17227 V 12.533783 l -4.11581,1.152427 v 10.289525 h -8.23162 v 3.539596 h 8.23162 V 54.84431 c 0,7.655406 4.44508,11.112687 10.86574,11.112687 3.95118,0 7.16151,-1.399376 9.30173,-3.457281 z"
     style="font-style:normal;font-variant:normal;font-weight:300;font-stretch:normal;font-size:82.3162px;line-height:1.25;font-family:'Work Sans';-inkscape-font-specification:'Work Sans Light';letter-spacing:-2.57238px;fill:#000000;fill-opacity:1;stroke:none;stroke-width:1.2862"
     id="path1419" />
</svg>
